<?xml version="1.0" encoding="UTF-8"?>
<svg version="1.1" xmlns="http://www.w3.org/2000/svg" width="549" height="141">
<path d="M0 0 C181.17 0 362.34 0 549 0 C549 46.53 549 93.06 549 141 C367.83 141 186.66 141 0 141 C0 94.47 0 47.94 0 0 Z " fill="#FEFEFE" transform="translate(0,0)"/>
<path d="M0 0 C16.83 0 33.66 0 51 0 C51 26.73 51 53.46 51 81 C53.97 81 56.94 81 60 81 C60 64.17 60 47.34 60 30 C66.93 30 73.86 30 81 30 C81 46.83 81 63.66 81 81 C84.3 81 87.6 81 91 81 C91 54.27 91 27.54 91 0 C107.83 0 124.66 0 142 0 C142 26.73 142 53.46 142 81 C145.3 81 148.6 81 152 81 C152 54.27 152 27.54 152 0 C158.93 0 165.86 0 173 0 C173 26.73 173 53.46 173 81 C175.97 81 178.94 81 182 81 C182 54.27 182 27.54 182 0 C188.93 0 195.86 0 203 0 C203 33.66 203 67.32 203 102 C145.91 102 88.82 102 30 102 C28.84857383 62.85151007 28.84857383 62.85151007 28.9375 43.375 C28.94255047 41.36198034 28.94710681 39.34895939 28.95117188 37.3359375 C28.96183913 32.55725743 28.9788843 27.77864483 29 23 C27.02 23.33 25.04 23.66 23 24 C21.78651483 33.85064433 21.66246274 43.71378447 21.4375 53.625 C21.39422426 55.41016462 21.35060737 57.19532101 21.30664062 58.98046875 C21.19985923 63.32022588 21.10008687 67.66006286 21 72 C14.07 72 7.14 72 0 72 C0 48.24 0 24.48 0 0 Z " fill="#424244" transform="translate(5,3)"/>
<path d="M0 0 C16.83 0 33.66 0 51 0 C51 26.73 51 53.46 51 81 C54.3 81 57.6 81 61 81 C61 54.27 61 27.54 61 0 C67.93 0 74.86 0 82 0 C82 33.66 82 67.32 82 102 C71.77 102 61.54 102 51 102 C51 111.9 51 121.8 51 132 C33.98696206 133.13420253 17.04095476 133.09461357 0 133 C0 126.07 0 119.14 0 112 C9.9 112 19.8 112 30 112 C30 108.7 30 105.4 30 102 C20.1 102 10.2 102 0 102 C0 68.34 0 34.68 0 0 Z " fill="#424244" transform="translate(340,3)"/>
<path d="M0 0 C12.5915625 -0.0309375 12.5915625 -0.0309375 25.4375 -0.0625 C28.09095459 -0.071604 30.74440918 -0.08070801 33.47827148 -0.09008789 C35.56754506 -0.09300686 37.65681919 -0.09555546 39.74609375 -0.09765625 C40.84215942 -0.10277222 41.9382251 -0.10788818 43.06750488 -0.11315918 C44.10282349 -0.11328003 45.13814209 -0.11340088 46.20483398 -0.11352539 C47.10862289 -0.115746 48.0124118 -0.11796661 48.94358826 -0.12025452 C51 0 51 0 52 1 C52.09502416 3.49492388 52.12557566 5.96206014 52.11352539 8.45727539 C52.11367142 9.23770706 52.11381744 10.01813873 52.1139679 10.82221985 C52.11326858 13.4140598 52.10547536 16.00582878 52.09765625 18.59765625 C52.09579213 20.3898464 52.0943682 22.18203706 52.09336853 23.97422791 C52.08954284 28.70070797 52.07971212 33.42715752 52.06866455 38.15362549 C52.05845153 42.9728555 52.05387115 47.79209042 52.04882812 52.61132812 C52.03808989 62.07423219 52.02101286 71.53711356 52 81 C54.97 81 57.94 81 61 81 C61 54.27 61 27.54 61 0 C67.93 0 74.86 0 82 0 C82 33.66 82 67.32 82 102 C54.94 102 27.88 102 0 102 C0 95.07 0 88.14 0 81 C9.9 81 19.8 81 30 81 C29.835 76.09125 29.67 71.1825 29.5 66.125 C29.0304029 51.41169246 28.87460254 36.7216618 29 22 C27.02 22.66 25.04 23.32 23 24 C22.97494385 24.92111572 22.9498877 25.84223145 22.92407227 26.79125977 C22.82759882 30.28596102 22.72847268 33.78056794 22.62768555 37.27514648 C22.58499467 38.77316452 22.54329055 40.27121108 22.50268555 41.76928711 C22.22803518 51.87031727 21.73089735 61.92098694 21 72 C14.07 72 7.14 72 0 72 C0 48.24 0 24.48 0 0 Z " fill="#444446" transform="translate(431,3)"/>
<path d="M0 0 C6.93 0 13.86 0 21 0 C21.14552659 7.37502432 21.28776128 14.75010307 21.42724609 22.12524414 C21.47489482 24.62200537 21.52336627 27.11875107 21.57275391 29.61547852 C21.90429707 46.41253763 22.07269559 63.19962919 22 80 C24.97 79.505 24.97 79.505 28 79 C29.16234476 75.51296571 29.21871622 72.31526848 29.29711914 68.68286133 C29.31677231 67.94115189 29.33642548 67.19944244 29.35667419 66.43525696 C29.42053229 63.98427132 29.47786873 61.53317854 29.53515625 59.08203125 C29.57816632 57.38236997 29.62158289 55.68271893 29.66539001 53.983078 C29.77958847 49.50991067 29.88825799 45.03662538 29.99578857 40.56329346 C30.10649278 35.99849201 30.22240898 31.43382327 30.33789062 26.86914062 C30.56370386 17.91288085 30.78319638 8.9564824 31 0 C37.93 0 44.86 0 52 0 C52.0225487 13.28187712 52.04091374 26.56374162 52.05181217 39.84563351 C52.05704158 46.0122492 52.06414027 52.17885118 52.07543945 58.34545898 C52.08626629 64.29116006 52.0922764 70.23684789 52.09487724 76.18255806 C52.09673186 78.45646943 52.10035317 80.73038004 52.10573006 83.00428581 C52.11293778 86.1772712 52.11399106 89.35020117 52.11352539 92.52319336 C52.11712067 93.47337341 52.12071594 94.42355347 52.12442017 95.40252686 C52.11405216 101.88594784 52.11405216 101.88594784 51 103 C34.17 103 17.34 103 0 103 C0 69.01 0 35.02 0 0 Z " fill="#444446" transform="translate(248,33)"/>
<path d="M0 0 C11.88 0 23.76 0 36 0 C36 43.56 36 87.12 36 132 C29.07 132 22.14 132 15 132 C15 95.37 15 58.74 15 21 C10.05 21 5.1 21 0 21 C0 14.07 0 7.14 0 0 Z " fill="#414143" transform="translate(294,3)"/>
<path d="M0 0 C11.88 0 23.76 0 36 0 C36 6.93 36 13.86 36 21 C31.05 21 26.1 21 21 21 C21 57.63 21 94.26 21 132 C14.07 132 7.14 132 0 132 C0 88.44 0 44.88 0 0 Z " fill="#414143" transform="translate(218,3)"/>
<path d="M0 0 C6.93 0 13.86 0 21 0 C21 43.56 21 87.12 21 132 C14.07 132 7.14 132 0 132 C0 88.44 0 44.88 0 0 Z " fill="#414143" transform="translate(522,3)"/>
<path d="M0 0 C36.96 0 73.92 0 112 0 C112 6.93 112 13.86 112 21 C75.04 21 38.08 21 0 21 C0 14.07 0 7.14 0 0 Z " fill="#424144" transform="translate(35,115)"/>
<path d="M0 0 C17.49 0 34.98 0 53 0 C53 6.93 53 13.86 53 21 C35.51 21 18.02 21 0 21 C0 14.07 0 7.14 0 0 Z " fill="#424144" transform="translate(461,115)"/>
<path d="M0 0 C0.94875 0.04125 1.8975 0.0825 2.875 0.125 C4.18260893 2.74021785 3.99497548 4.65613401 3.98852539 7.58447266 C3.98844986 8.72550446 3.98837433 9.86653625 3.98829651 11.04214478 C3.98313522 12.27862762 3.97797394 13.51511047 3.97265625 14.7890625 C3.9712413 16.05140717 3.96982635 17.31375183 3.96836853 18.61434937 C3.96371078 21.97138299 3.95472408 25.328349 3.94366455 28.68536377 C3.9334377 32.11054906 3.92886818 35.53574134 3.92382812 38.9609375 C3.91278238 45.68231043 3.89603194 52.40365131 3.875 59.125 C0.905 59.125 -2.065 59.125 -5.125 59.125 C-5.17129419 51.7276924 -5.20685426 44.33041593 -5.22862434 36.93299294 C-5.2390717 33.49824541 -5.25324805 30.06359683 -5.27587891 26.62890625 C-5.30172063 22.68230362 -5.31146493 18.73574137 -5.3203125 14.7890625 C-5.33063507 13.55257965 -5.34095764 12.3160968 -5.35159302 11.04214478 C-5.35174408 9.90111298 -5.35189514 8.76008118 -5.35205078 7.58447266 C-5.356492 6.576315 -5.36093323 5.56815735 -5.36550903 4.52944946 C-4.97756348 0.65102768 -3.7881756 0.15152702 0 0 Z " fill="#FEFEFE" transform="translate(122.125,24.875)"/>
<path d="M0 0 C2.5 0.25 2.5 0.25 4.5 2.25 C4.74050903 4.65444946 4.74050903 4.65444946 4.72705078 7.70947266 C4.72682419 9.42102036 4.72682419 9.42102036 4.72659302 11.16714478 C4.71627045 12.40362762 4.70594788 13.64011047 4.6953125 14.9140625 C4.6924826 16.17640717 4.68965271 17.43875183 4.68673706 18.73934937 C4.67742131 22.09646944 4.65944835 25.45331912 4.6373291 28.81036377 C4.6168755 32.23553122 4.6077364 35.66072659 4.59765625 39.0859375 C4.57556458 45.80736671 4.54206377 52.52866773 4.5 59.25 C1.53 59.25 -1.44 59.25 -4.5 59.25 C-4.54629419 51.8526924 -4.58185426 44.45541593 -4.60362434 37.05799294 C-4.6140717 33.62324541 -4.62824805 30.18859683 -4.65087891 26.75390625 C-4.67672063 22.80730362 -4.68646493 18.86074137 -4.6953125 14.9140625 C-4.70563507 13.67757965 -4.71595764 12.4410968 -4.72659302 11.16714478 C-4.72674408 10.02611298 -4.72689514 8.88508118 -4.72705078 7.70947266 C-4.731492 6.701315 -4.73593323 5.69315735 -4.74050903 4.65444946 C-4.39595703 1.20984758 -3.42538323 0.34253832 0 0 Z " fill="#FEFEFE" transform="translate(365.5,24.75)"/>
<path d="M0 0 C6.93 0 13.86 0 21 0 C21 6.93 21 13.86 21 21 C14.07 21 7.14 21 0 21 C0 14.07 0 7.14 0 0 Z " fill="#770720" transform="translate(431,115)"/>
<path d="M0 0 C6.93 0 13.86 0 21 0 C21 6.93 21 13.86 21 21 C14.07 21 7.14 21 0 21 C0 14.07 0 7.14 0 0 Z " fill="#770720" transform="translate(401,115)"/>
<path d="M0 0 C6.93 0 13.86 0 21 0 C21 6.93 21 13.86 21 21 C14.07 21 7.14 21 0 21 C0 14.07 0 7.14 0 0 Z " fill="#770720" transform="translate(187,115)"/>
<path d="M0 0 C6.93 0 13.86 0 21 0 C21 6.93 21 13.86 21 21 C14.07 21 7.14 21 0 21 C0 14.07 0 7.14 0 0 Z " fill="#770720" transform="translate(157,115)"/>
<path d="M0 0 C6.93 0 13.86 0 21 0 C21 6.93 21 13.86 21 21 C14.07 21 7.14 21 0 21 C0 14.07 0 7.14 0 0 Z " fill="#770720" transform="translate(5,115)"/>
<path d="M0 0 C6.93 0 13.86 0 21 0 C21 6.93 21 13.86 21 21 C14.07 21 7.14 21 0 21 C0 14.07 0 7.14 0 0 Z " fill="#7A061F" transform="translate(5,84)"/>
<path d="M0 0 C6.93 0 13.86 0 21 0 C21 6.93 21 13.86 21 21 C14.07 21 7.14 21 0 21 C0 14.07 0 7.14 0 0 Z " fill="#770720" transform="translate(263,3)"/>
<path d="M0 0 C6.93 0 13.86 0 21 0 C21 6.93 21 13.86 21 21 C14.07 21 7.14 21 0 21 C0 14.07 0 7.14 0 0 Z " fill="#770720" transform="translate(65,3)"/>
<path d="M0 0 C0.33 0 0.66 0 1 0 C1 6.6 1 13.2 1 20 C6.28 20 11.56 20 17 20 C17 14.72 17 9.44 17 4 C16.34 4 15.68 4 15 4 C15 2.68 15 1.36 15 0 C16.98 0 18.96 0 21 0 C21 6.93 21 13.86 21 21 C14.07 21 7.14 21 0 21 C0 14.07 0 7.14 0 0 Z " fill="#700B22" transform="translate(5,84)"/>
</svg>
