<?xml version="1.0" encoding="UTF-8"?>
<svg version="1.1" xmlns="http://www.w3.org/2000/svg" width="563" height="245">
<path d="M0 0 C185.79 0 371.58 0 563 0 C563 80.85 563 161.7 563 245 C377.21 245 191.42 245 0 245 C0 164.15 0 83.3 0 0 Z " fill="#FEFEFE" transform="translate(0,0)"/>
<path d="M0 0 C16.83 0 33.66 0 51 0 C51 26.73 51 53.46 51 81 C53.97 81 56.94 81 60 81 C60 64.17 60 47.34 60 30 C66.93 30 73.86 30 81 30 C81 46.83 81 63.66 81 81 C84.3 81 87.6 81 91 81 C91 54.27 91 27.54 91 0 C107.83 0 124.66 0 142 0 C142 26.73 142 53.46 142 81 C145.3 81 148.6 81 152 81 C152 54.27 152 27.54 152 0 C158.93 0 165.86 0 173 0 C173 26.73 173 53.46 173 81 C175.97 81 178.94 81 182 81 C182 54.27 182 27.54 182 0 C188.93 0 195.86 0 203 0 C203 33.66 203 67.32 203 102 C145.91 102 88.82 102 30 102 C28.84857383 62.85151007 28.84857383 62.85151007 28.9375 43.375 C28.94255047 41.36198034 28.94710681 39.34895939 28.95117188 37.3359375 C28.96183913 32.55725743 28.9788843 27.77864483 29 23 C27.02 23.33 25.04 23.66 23 24 C21.78651483 33.85064433 21.66246274 43.71378447 21.4375 53.625 C21.39422426 55.41016462 21.35060737 57.19532101 21.30664062 58.98046875 C21.19985923 63.32022588 21.10008687 67.66006286 21 72 C14.07 72 7.14 72 0 72 C0 48.24 0 24.48 0 0 Z " fill="#424244" transform="translate(13,10)"/>
<path d="M0 0 C16.83 0 33.66 0 51 0 C51 26.73 51 53.46 51 81 C54.3 81 57.6 81 61 81 C61 54.27 61 27.54 61 0 C67.93 0 74.86 0 82 0 C82 33.66 82 67.32 82 102 C71.77 102 61.54 102 51 102 C51 111.9 51 121.8 51 132 C33.98696206 133.13420253 17.04095476 133.09461357 0 133 C0 126.07 0 119.14 0 112 C9.9 112 19.8 112 30 112 C30 108.7 30 105.4 30 102 C20.1 102 10.2 102 0 102 C0 68.34 0 34.68 0 0 Z " fill="#424244" transform="translate(348,10)"/>
<path d="M0 0 C12.5915625 -0.0309375 12.5915625 -0.0309375 25.4375 -0.0625 C28.09095459 -0.071604 30.74440918 -0.08070801 33.47827148 -0.09008789 C35.56754506 -0.09300686 37.65681919 -0.09555546 39.74609375 -0.09765625 C40.84215942 -0.10277222 41.9382251 -0.10788818 43.06750488 -0.11315918 C44.10282349 -0.11328003 45.13814209 -0.11340088 46.20483398 -0.11352539 C47.10862289 -0.115746 48.0124118 -0.11796661 48.94358826 -0.12025452 C51 0 51 0 52 1 C52.09502416 3.49492388 52.12557566 5.96206014 52.11352539 8.45727539 C52.11367142 9.23770706 52.11381744 10.01813873 52.1139679 10.82221985 C52.11326858 13.4140598 52.10547536 16.00582878 52.09765625 18.59765625 C52.09579213 20.3898464 52.0943682 22.18203706 52.09336853 23.97422791 C52.08954284 28.70070797 52.07971212 33.42715752 52.06866455 38.15362549 C52.05845153 42.9728555 52.05387115 47.79209042 52.04882812 52.61132812 C52.03808989 62.07423219 52.02101286 71.53711356 52 81 C54.97 81 57.94 81 61 81 C61 54.27 61 27.54 61 0 C67.93 0 74.86 0 82 0 C82 33.66 82 67.32 82 102 C54.94 102 27.88 102 0 102 C0 95.07 0 88.14 0 81 C9.9 81 19.8 81 30 81 C29.835 76.09125 29.67 71.1825 29.5 66.125 C29.0304029 51.41169246 28.87460254 36.7216618 29 22 C27.02 22.66 25.04 23.32 23 24 C22.97494385 24.92111572 22.9498877 25.84223145 22.92407227 26.79125977 C22.82759882 30.28596102 22.72847268 33.78056794 22.62768555 37.27514648 C22.58499467 38.77316452 22.54329055 40.27121108 22.50268555 41.76928711 C22.22803518 51.87031727 21.73089735 61.92098694 21 72 C14.07 72 7.14 72 0 72 C0 48.24 0 24.48 0 0 Z " fill="#444446" transform="translate(439,10)"/>
<path d="M0 0 C6.93 0 13.86 0 21 0 C21.14552659 7.37502432 21.28776128 14.75010307 21.42724609 22.12524414 C21.47489482 24.62200537 21.52336627 27.11875107 21.57275391 29.61547852 C21.90429707 46.41253763 22.07269559 63.19962919 22 80 C24.97 79.505 24.97 79.505 28 79 C29.16234476 75.51296571 29.21871622 72.31526848 29.29711914 68.68286133 C29.31677231 67.94115189 29.33642548 67.19944244 29.35667419 66.43525696 C29.42053229 63.98427132 29.47786873 61.53317854 29.53515625 59.08203125 C29.57816632 57.38236997 29.62158289 55.68271893 29.66539001 53.983078 C29.77958847 49.50991067 29.88825799 45.03662538 29.99578857 40.56329346 C30.10649278 35.99849201 30.22240898 31.43382327 30.33789062 26.86914062 C30.56370386 17.91288085 30.78319638 8.9564824 31 0 C37.93 0 44.86 0 52 0 C52.0225487 13.28187712 52.04091374 26.56374162 52.05181217 39.84563351 C52.05704158 46.0122492 52.06414027 52.17885118 52.07543945 58.34545898 C52.08626629 64.29116006 52.0922764 70.23684789 52.09487724 76.18255806 C52.09673186 78.45646943 52.10035317 80.73038004 52.10573006 83.00428581 C52.11293778 86.1772712 52.11399106 89.35020117 52.11352539 92.52319336 C52.11712067 93.47337341 52.12071594 94.42355347 52.12442017 95.40252686 C52.11405216 101.88594784 52.11405216 101.88594784 51 103 C34.17 103 17.34 103 0 103 C0 69.01 0 35.02 0 0 Z " fill="#444446" transform="translate(256,40)"/>
<path d="M0 0 C11.88 0 23.76 0 36 0 C36 43.56 36 87.12 36 132 C29.07 132 22.14 132 15 132 C15 95.37 15 58.74 15 21 C10.05 21 5.1 21 0 21 C0 14.07 0 7.14 0 0 Z " fill="#414143" transform="translate(302,10)"/>
<path d="M0 0 C11.88 0 23.76 0 36 0 C36 6.93 36 13.86 36 21 C31.05 21 26.1 21 21 21 C21 57.63 21 94.26 21 132 C14.07 132 7.14 132 0 132 C0 88.44 0 44.88 0 0 Z " fill="#414143" transform="translate(226,10)"/>
<path d="M0 0 C6.93 0 13.86 0 21 0 C21 43.56 21 87.12 21 132 C14.07 132 7.14 132 0 132 C0 88.44 0 44.88 0 0 Z " fill="#414143" transform="translate(530,10)"/>
<path d="M0 0 C36.96 0 73.92 0 112 0 C112 6.93 112 13.86 112 21 C75.04 21 38.08 21 0 21 C0 14.07 0 7.14 0 0 Z " fill="#424144" transform="translate(43,122)"/>
<path d="M0 0 C2.64 0 5.28 0 8 0 C8 12.21 8 24.42 8 37 C10.64 37 13.28 37 16 37 C15.99476318 35.91468994 15.98952637 34.82937988 15.98413086 33.71118164 C15.96608164 29.69882018 15.95456829 25.68646233 15.94506836 21.67407227 C15.94002796 19.93480832 15.9331957 18.19554864 15.92456055 16.45629883 C15.91248208 13.96174063 15.90676892 11.46723827 15.90234375 8.97265625 C15.89718246 8.19036148 15.89202118 7.40806671 15.88670349 6.60206604 C15.88650774 4.73432886 15.93800306 2.86670796 16 1 C17 0 17 0 20.5 -0.125 C24 0 24 0 25 1 C25 15.52 25 30.04 25 45 C-6.02 45 -37.04 45 -69 45 C-69 42.36 -69 39.72 -69 37 C-62.4 37 -55.8 37 -49 37 C-50.82751289 31.92478363 -50.82751289 31.92478363 -53 27 C-55.34386809 26.08968728 -55.34386809 26.08968728 -58.0625 25.375 C-58.98160156 25.11460937 -59.90070313 24.85421875 -60.84765625 24.5859375 C-61.55792969 24.39257812 -62.26820313 24.19921875 -63 24 C-63 21.03 -63 18.06 -63 15 C-53.33700138 14.38101788 -53.33700138 14.38101788 -48.625 16.5625 C-44.71124324 20.19670271 -41.6985841 23.90424771 -40 29 C-40 31.64 -40 34.28 -40 37 C-32.41 37 -24.82 37 -17 37 C-17.495 35.02 -17.495 35.02 -18 33 C-18.12447135 29.99277207 -18.04428988 27.01171196 -18 24 C-23.28 23.67 -28.56 23.34 -34 23 C-34 20.36 -34 17.72 -34 15 C-31.10359882 14.91879249 -28.20949088 14.85940579 -25.3125 14.8125 C-24.49587891 14.78736328 -23.67925781 14.76222656 -22.83789062 14.73632812 C-18.07884785 14.67852599 -14.77643577 14.77006143 -11 18 C-7.75017991 22.02526524 -7.67013021 25.2346442 -7.8125 30.3125 C-7.85310547 32.19388672 -7.85310547 32.19388672 -7.89453125 34.11328125 C-7.92933594 35.06589844 -7.96414063 36.01851562 -8 37 C-5.36 37 -2.72 37 0 37 C0 24.79 0 12.58 0 0 Z " fill="#851B33" transform="translate(524,182)"/>
<path d="M0 0 C2.64 0 5.28 0 8 0 C8 12.21 8 24.42 8 37 C15.59 37 23.18 37 31 37 C30.505 30.565 30.505 30.565 30 24 C24.72 23.67 19.44 23.34 14 23 C14 20.36 14 17.72 14 15 C16.87602455 14.89147077 19.74790832 14.8124485 22.625 14.75 C23.43324219 14.71648437 24.24148437 14.68296875 25.07421875 14.6484375 C30.56370226 14.55917761 33.6708666 15.29692589 38 19 C40.45391569 22.68087353 40.22802759 25.44355588 40.125 29.6875 C40.11597656 30.38939453 40.10695312 31.09128906 40.09765625 31.81445312 C40.07413704 33.54311525 40.03826713 35.27160145 40 37 C44.29 37 48.58 37 53 37 C53 29.74 53 22.48 53 15 C55.97 15 58.94 15 62 15 C62 22.26 62 29.52 62 37 C63.98 37 65.96 37 68 37 C68 24.79 68 12.58 68 0 C70.64 0 73.28 0 76 0 C76 14.85 76 29.7 76 45 C50.92 45 25.84 45 0 45 C0 30.15 0 15.3 0 0 Z " fill="#8B233B" transform="translate(86,182)"/>
<path d="M0 0 C2.64 0 5.28 0 8 0 C8 12.21 8 24.42 8 37 C13.94 36.505 13.94 36.505 20 36 C18.205625 33.834375 18.205625 33.834375 16.375 31.625 C14.25863765 28.6356914 13.02766003 26.86828449 12.91015625 23.1796875 C13.66168302 19.36081816 14.21122865 16.78877135 17 14 C19.65045307 13.77349069 22.16261151 13.67570174 24.8125 13.6875 C25.52470703 13.67138672 26.23691406 13.65527344 26.97070312 13.63867188 C31.49805047 13.63448376 34.41415094 14.19279245 38 17 C39.34832104 19.69664208 39.16910682 21.86587521 39.1875 24.875 C39.20167969 25.92429688 39.21585937 26.97359375 39.23046875 28.0546875 C39 31 39 31 37 35 C39.97 35.66 42.94 36.32 46 37 C46 24.79 46 12.58 46 0 C48.97 0 51.94 0 55 0 C55 14.85 55 29.7 55 45 C36.85 45 18.7 45 0 45 C0 30.15 0 15.3 0 0 Z " fill="#89263D" transform="translate(276,182)"/>
<path d="M0 0 C0 7.26 0 14.52 0 22 C1.98 22 3.96 22 6 22 C5.95359375 20.89140625 5.9071875 19.7828125 5.859375 18.640625 C5.82184898 17.17711032 5.78544971 15.71356644 5.75 14.25 C5.71648437 13.52039063 5.68296875 12.79078125 5.6484375 12.0390625 C5.58404469 8.49745802 5.64277543 6.46713982 7.828125 3.609375 C12.36389249 0.24833866 15.17579801 -0.25880416 20.6875 -0.125 C21.38939453 -0.11597656 22.09128906 -0.10695312 22.81445312 -0.09765625 C24.54311525 -0.07413704 26.27160145 -0.03826713 28 0 C28.11668418 4.52061442 28.18741645 9.04083847 28.25 13.5625 C28.28351563 14.83931641 28.31703125 16.11613281 28.3515625 17.43164062 C28.47740664 29.54413911 28.47740664 29.54413911 24 35 C20.61699028 37.69169904 16.93786078 37.20255298 12.75 37.125 C10.85507813 37.09792969 10.85507813 37.09792969 8.921875 37.0703125 C7.47554687 37.03550781 7.47554687 37.03550781 6 37 C6 34.69 6 32.38 6 30 C1.38 30 -3.24 30 -8 30 C-8.33 24.06 -8.66 18.12 -9 12 C-13.5077298 16.71262661 -16.03959794 20.81946767 -18.23828125 26.9609375 C-19 29 -19 29 -20 30 C-21.51928038 30.07179964 -23.04167482 30.08392007 -24.5625 30.0625 C-25.38878906 30.05347656 -26.21507812 30.04445312 -27.06640625 30.03515625 C-28.02353516 30.01775391 -28.02353516 30.01775391 -29 30 C-28.80692199 20.60938785 -26.73195553 14.30610254 -20.5625 7.1875 C-13.15678826 0.86555095 -9.78724974 0 0 0 Z " fill="#81243A" transform="translate(243,197)"/>
<path d="M0 0 C17.49 0 34.98 0 53 0 C53 6.93 53 13.86 53 21 C35.51 21 18.02 21 0 21 C0 14.07 0 7.14 0 0 Z " fill="#424144" transform="translate(469,122)"/>
<path d="M0 0 C2.64 0 5.28 0 8 0 C8 12.21 8 24.42 8 37 C10.31 37 12.62 37 15 37 C14.97679687 35.96359375 14.95359375 34.9271875 14.9296875 33.859375 C14.91092333 32.48959056 14.89272382 31.1197983 14.875 29.75 C14.85824219 29.06808594 14.84148437 28.38617188 14.82421875 27.68359375 C14.75860994 20.92588642 14.75860994 20.92588642 17 18 C21.05131748 14.70413843 24.79343964 14.62518579 29.8125 14.8125 C30.85180664 14.83280273 30.85180664 14.83280273 31.91210938 14.85351562 C33.60841265 14.88861155 35.30431136 14.94241057 37 15 C37.08738991 19.37487331 37.140524 23.74952078 37.1875 28.125 C37.21263672 29.3625 37.23777344 30.6 37.26367188 31.875 C37.27333984 33.07382813 37.28300781 34.27265625 37.29296875 35.5078125 C37.3086792 36.60754395 37.32438965 37.70727539 37.34057617 38.84033203 C36.95166316 42.44844115 35.78838888 44.86877242 34 48 C31.03 47.505 31.03 47.505 28 47 C28.33 39.08 28.66 31.16 29 23 C27.35 23.33 25.7 23.66 24 24 C23.94208156 27.12492251 23.90643254 30.24970766 23.875 33.375 C23.85824219 34.26445312 23.84148437 35.15390625 23.82421875 36.0703125 C23.81777344 36.92109375 23.81132812 37.771875 23.8046875 38.6484375 C23.79421387 39.43395996 23.78374023 40.21948242 23.77294922 41.02880859 C23.82009873 43.234465 23.82009873 43.234465 26 45 C23.62622543 47.74858108 21.36768334 48.73711875 18 50 C17.01 50.66 16.02 51.32 15 52 C15 49.69 15 47.38 15 45 C10.05 45 5.1 45 0 45 C0 30.15 0 15.3 0 0 Z " fill="#780D25" transform="translate(414,182)"/>
<path d="M0 0 C0 7.26 0 14.52 0 22 C4.29 22 8.58 22 13 22 C13 14.74 13 7.48 13 0 C15.97 0 18.94 0 22 0 C22 9.9 22 19.8 22 30 C11.77 30 1.54 30 -9 30 C-9.66 24.72 -10.32 19.44 -11 14 C-14.92103225 19.11912543 -17.52510708 24.04192446 -20 30 C-22.97 30 -25.94 30 -29 30 C-29.68856997 22.08144537 -26.8028382 15.409779 -22.4375 8.875 C-21.633125 7.92625 -20.82875 6.9775 -20 6 C-19.01 6 -18.02 6 -17 6 C-16.67 5.01 -16.34 4.02 -16 3 C-10.34539501 -0.91472653 -7.66639077 0 0 0 Z " fill="#750820" transform="translate(44,197)"/>
<path d="M0 0 C1.27133789 0.00966797 1.27133789 0.00966797 2.56835938 0.01953125 C3.8899707 0.04466797 3.8899707 0.04466797 5.23828125 0.0703125 C6.57729492 0.08384766 6.57729492 0.08384766 7.94335938 0.09765625 C10.14610439 0.12121502 12.34830713 0.15410921 14.55078125 0.1953125 C14.62525392 4.78512064 14.67953447 9.37457264 14.71557617 13.96484375 C14.73060994 15.52447644 14.7510426 17.08406722 14.77709961 18.64355469 C14.81372336 20.89268366 14.83056146 23.14125097 14.84375 25.390625 C14.85923386 26.081492 14.87471771 26.77235901 14.89067078 27.48416138 C14.89226455 32.12800571 13.96319525 35.23968221 11.55078125 39.1953125 C7.99793972 42.15601377 3.18854673 41.41490778 -1.19921875 41.3203125 C-1.99199219 41.31128906 -2.78476563 41.30226562 -3.6015625 41.29296875 C-5.55091156 41.26948262 -7.5001045 41.23361387 -9.44921875 41.1953125 C-9.44921875 38.2253125 -9.44921875 35.2553125 -9.44921875 32.1953125 C-4.49921875 32.1953125 0.45078125 32.1953125 5.55078125 32.1953125 C5.55078125 31.5353125 5.55078125 30.8753125 5.55078125 30.1953125 C4.00390625 30.288125 4.00390625 30.288125 2.42578125 30.3828125 C-1.84824697 30.17600468 -3.96000914 29.65361927 -7.44921875 27.1953125 C-11.20950458 21.30419804 -11.16021632 15.03036918 -10.44921875 8.1953125 C-8.40922998 2.56105779 -6.1352543 -0.08235241 0 0 Z " fill="#86243A" transform="translate(186.44921875,196.8046875)"/>
<path d="M0 0 C2.64 0 5.28 0 8 0 C8.03738281 0.85722656 8.07476562 1.71445313 8.11328125 2.59765625 C8.55318985 11.72422166 8.55318985 11.72422166 12 20 C15.49470608 21.36387492 19.24476425 21.2064125 22.953125 21.31640625 C23.61334656 21.33718735 24.27356812 21.35796844 24.95379639 21.37937927 C27.05243015 21.44450147 29.15118372 21.50358502 31.25 21.5625 C32.67709547 21.60572079 34.10417905 21.6493362 35.53125 21.69335938 C39.02071259 21.80088351 42.51027257 21.90023285 46 22 C46 14.74 46 7.48 46 0 C48.97 0 51.94 0 55 0 C55 9.9 55 19.8 55 30 C48.54004488 30.06891299 42.08136786 30.12863534 35.62133789 30.16479492 C33.42435379 30.17987052 31.22739974 30.20033426 29.03051758 30.22631836 C25.87053 30.26275502 22.71094076 30.27973884 19.55078125 30.29296875 C18.08020012 30.31619453 18.08020012 30.31619453 16.57991028 30.33988953 C11.5720181 30.34112218 8.03076259 30.32846656 4 27 C-0.81932571 21.73808315 -0.48755584 16.86793102 -0.25 10.125 C-0.23195313 9.15046875 -0.21390625 8.1759375 -0.1953125 7.171875 C-0.14841734 4.78022193 -0.08280907 2.39063403 0 0 Z " fill="#861E36" transform="translate(356,197)"/>
<path d="M0 0 C0.94875 0.04125 1.8975 0.0825 2.875 0.125 C4.18260893 2.74021785 3.99497548 4.65613401 3.98852539 7.58447266 C3.98844986 8.72550446 3.98837433 9.86653625 3.98829651 11.04214478 C3.98313522 12.27862762 3.97797394 13.51511047 3.97265625 14.7890625 C3.9712413 16.05140717 3.96982635 17.31375183 3.96836853 18.61434937 C3.96371078 21.97138299 3.95472408 25.328349 3.94366455 28.68536377 C3.9334377 32.11054906 3.92886818 35.53574134 3.92382812 38.9609375 C3.91278238 45.68231043 3.89603194 52.40365131 3.875 59.125 C0.905 59.125 -2.065 59.125 -5.125 59.125 C-5.17129419 51.7276924 -5.20685426 44.33041593 -5.22862434 36.93299294 C-5.2390717 33.49824541 -5.25324805 30.06359683 -5.27587891 26.62890625 C-5.30172063 22.68230362 -5.31146493 18.73574137 -5.3203125 14.7890625 C-5.33063507 13.55257965 -5.34095764 12.3160968 -5.35159302 11.04214478 C-5.35174408 9.90111298 -5.35189514 8.76008118 -5.35205078 7.58447266 C-5.356492 6.576315 -5.36093323 5.56815735 -5.36550903 4.52944946 C-4.97756348 0.65102768 -3.7881756 0.15152702 0 0 Z " fill="#FEFEFE" transform="translate(130.125,31.875)"/>
<path d="M0 0 C2.5 0.25 2.5 0.25 4.5 2.25 C4.74050903 4.65444946 4.74050903 4.65444946 4.72705078 7.70947266 C4.72682419 9.42102036 4.72682419 9.42102036 4.72659302 11.16714478 C4.71627045 12.40362762 4.70594788 13.64011047 4.6953125 14.9140625 C4.6924826 16.17640717 4.68965271 17.43875183 4.68673706 18.73934937 C4.67742131 22.09646944 4.65944835 25.45331912 4.6373291 28.81036377 C4.6168755 32.23553122 4.6077364 35.66072659 4.59765625 39.0859375 C4.57556458 45.80736671 4.54206377 52.52866773 4.5 59.25 C1.53 59.25 -1.44 59.25 -4.5 59.25 C-4.54629419 51.8526924 -4.58185426 44.45541593 -4.60362434 37.05799294 C-4.6140717 33.62324541 -4.62824805 30.18859683 -4.65087891 26.75390625 C-4.67672063 22.80730362 -4.68646493 18.86074137 -4.6953125 14.9140625 C-4.70563507 13.67757965 -4.71595764 12.4410968 -4.72659302 11.16714478 C-4.72674408 10.02611298 -4.72689514 8.88508118 -4.72705078 7.70947266 C-4.731492 6.701315 -4.73593323 5.69315735 -4.74050903 4.65444946 C-4.39595703 1.20984758 -3.42538323 0.34253832 0 0 Z " fill="#FEFEFE" transform="translate(373.5,31.75)"/>
<path d="M0 0 C-0.33 0.99 -0.66 1.98 -1 3 C-3.31 3.33 -5.62 3.66 -8 4 C-8 4.66 -8 5.32 -8 6 C-7.34 6 -6.68 6 -6 6 C-5.98541748 6.62567871 -5.97083496 7.25135742 -5.95581055 7.89599609 C-5.88147196 10.72296402 -5.78476766 13.54873208 -5.6875 16.375 C-5.66494141 17.35984375 -5.64238281 18.3446875 -5.61914062 19.359375 C-5.5659668 20.77089844 -5.5659668 20.77089844 -5.51171875 22.2109375 C-5.48553467 23.08024902 -5.45935059 23.94956055 -5.43237305 24.84521484 C-5.18654782 27.38600027 -5.18654782 27.38600027 -2 29 C-1.34 28.34 -0.68 27.68 0 27 C0.33 28.65 0.66 30.3 1 32 C-1.475 32.495 -1.475 32.495 -4 33 C-4 33.33 -4 33.66 -4 34 C-7.3 34 -10.6 34 -14 34 C-14 32.02 -14 30.04 -14 28 C-17.00778521 26.99740493 -19.53820647 26.69685358 -22.6875 26.4375 C-23.68136719 26.35371094 -24.67523438 26.26992187 -25.69921875 26.18359375 C-26.83810547 26.09271484 -26.83810547 26.09271484 -28 26 C-28.05407567 23.41638482 -28.093707 20.83390745 -28.125 18.25 C-28.14175781 17.52039063 -28.15851563 16.79078125 -28.17578125 16.0390625 C-28.21072239 12.1955376 -28.17499684 9.25393228 -26 6 C-24.68 6 -23.36 6 -22 6 C-21.06380187 9.15506142 -20.8942877 11.96586502 -20.9375 15.25 C-20.94652344 16.14203125 -20.95554688 17.0340625 -20.96484375 17.953125 C-20.97644531 18.62859375 -20.98804688 19.3040625 -21 20 C-18.69 20 -16.38 20 -14 20 C-14.01160156 19.32453125 -14.02320313 18.6490625 -14.03515625 17.953125 C-14.04417969 17.06109375 -14.05320313 16.1690625 -14.0625 15.25 C-14.07410156 14.36828125 -14.08570313 13.4865625 -14.09765625 12.578125 C-14.00826198 10.2181162 -13.66912821 8.25501476 -13 6 C-12.01 6 -11.02 6 -10 6 C-10 4.35 -10 2.7 -10 1 C-6.56484998 0.37542727 -3.50935186 0 0 0 Z " fill="#7A0821" transform="translate(264,199)"/>
<path d="M0 0 C1.0528418 0.01353516 1.0528418 0.01353516 2.12695312 0.02734375 C3.85561525 0.05086296 5.58410145 0.08673287 7.3125 0.125 C7.42918418 4.64561442 7.49991645 9.16583847 7.5625 13.6875 C7.59601563 14.96431641 7.62953125 16.24113281 7.6640625 17.55664062 C7.73748716 24.62376409 7.67163076 29.41865757 3.3125 35.125 C1.8275 34.63 1.8275 34.63 0.3125 34.125 C0.3125 32.805 0.3125 31.485 0.3125 30.125 C-0.6775 30.785 -1.6675 31.445 -2.6875 32.125 C-4.79157096 30.42863829 -5.61990678 29.57518536 -6.02807617 26.85668945 C-6.01236572 25.99261475 -5.99665527 25.12854004 -5.98046875 24.23828125 C-5.97080078 23.30048828 -5.96113281 22.36269531 -5.95117188 21.39648438 C-5.92603516 20.42001953 -5.90089844 19.44355469 -5.875 18.4375 C-5.86146484 17.44943359 -5.84792969 16.46136719 -5.83398438 15.44335938 C-5.79862203 13.00335769 -5.74927033 10.56445281 -5.6875 8.125 C-6.3475 8.125 -7.0075 8.125 -7.6875 8.125 C-7.6875 7.465 -7.6875 6.805 -7.6875 6.125 C-6.553125 5.83625 -5.41875 5.5475 -4.25 5.25 C-3.074375 4.87875 -1.89875 4.5075 -0.6875 4.125 C-0.3575 3.465 -0.0275 2.805 0.3125 2.125 C-2.9875 2.455 -6.2875 2.785 -9.6875 3.125 C-9.6875 4.775 -9.6875 6.425 -9.6875 8.125 C-10.6775 8.125 -11.6675 8.125 -12.6875 8.125 C-13.0175 12.745 -13.3475 17.365 -13.6875 22.125 C-14.0175 22.125 -14.3475 22.125 -14.6875 22.125 C-14.7956866 19.54054227 -14.87487237 16.96062648 -14.9375 14.375 C-14.97101563 13.64539063 -15.00453125 12.91578125 -15.0390625 12.1640625 C-15.10345531 8.62245802 -15.04472457 6.59213982 -12.859375 3.734375 C-8.32360751 0.37333866 -5.51170199 -0.13380416 0 0 Z " fill="#801B32" transform="translate(263.6875,196.875)"/>
<path d="M0 0 C6.93 0 13.86 0 21 0 C21 6.93 21 13.86 21 21 C14.07 21 7.14 21 0 21 C0 14.07 0 7.14 0 0 Z " fill="#770720" transform="translate(439,122)"/>
<path d="M0 0 C6.93 0 13.86 0 21 0 C21 6.93 21 13.86 21 21 C14.07 21 7.14 21 0 21 C0 14.07 0 7.14 0 0 Z " fill="#770720" transform="translate(409,122)"/>
<path d="M0 0 C6.93 0 13.86 0 21 0 C21 6.93 21 13.86 21 21 C14.07 21 7.14 21 0 21 C0 14.07 0 7.14 0 0 Z " fill="#770720" transform="translate(195,122)"/>
<path d="M0 0 C6.93 0 13.86 0 21 0 C21 6.93 21 13.86 21 21 C14.07 21 7.14 21 0 21 C0 14.07 0 7.14 0 0 Z " fill="#770720" transform="translate(165,122)"/>
<path d="M0 0 C6.93 0 13.86 0 21 0 C21 6.93 21 13.86 21 21 C14.07 21 7.14 21 0 21 C0 14.07 0 7.14 0 0 Z " fill="#770720" transform="translate(13,122)"/>
<path d="M0 0 C6.93 0 13.86 0 21 0 C21 6.93 21 13.86 21 21 C14.07 21 7.14 21 0 21 C0 14.07 0 7.14 0 0 Z " fill="#7A061F" transform="translate(13,91)"/>
<path d="M0 0 C6.93 0 13.86 0 21 0 C21 6.93 21 13.86 21 21 C14.07 21 7.14 21 0 21 C0 14.07 0 7.14 0 0 Z " fill="#770720" transform="translate(271,10)"/>
<path d="M0 0 C6.93 0 13.86 0 21 0 C21 6.93 21 13.86 21 21 C14.07 21 7.14 21 0 21 C0 14.07 0 7.14 0 0 Z " fill="#770720" transform="translate(73,10)"/>
<path d="M0 0 C2.97 0 5.94 0 9 0 C9.07449251 4.44739413 9.12876257 8.8944519 9.16479492 13.34228516 C9.17982543 14.85341727 9.20025564 16.36450618 9.22631836 17.87548828 C9.26295689 20.05512187 9.27978338 22.23417575 9.29296875 24.4140625 C9.31653442 26.37786865 9.31653442 26.37786865 9.34057617 28.38134766 C8.97012596 32.31741437 8.12806026 34.6846481 6 38 C1.99106337 40.18669271 -0.41690422 41 -5 41 C-5 38.03 -5 35.06 -5 32 C-4.01 31.67 -3.02 31.34 -2 31 C-1.01 15.655 -1.01 15.655 0 0 Z " fill="#913347" transform="translate(73,197)"/>
<path d="M0 0 C0.66 0.33 1.32 0.66 2 1 C1.67 1.66 1.34 2.32 1 3 C0.34 3 -0.32 3 -1 3 C-0.505 4.134375 -0.01 5.26875 0.5 6.4375 C2.99867098 13.7340885 2.17961003 21.39650863 2 29 C11.57 29 21.14 29 31 29 C31 19.43 31 9.86 31 0 C31.33 0 31.66 0 32 0 C32 9.9 32 19.8 32 30 C21.77 30 11.54 30 1 30 C0.34 24.72 -0.32 19.44 -1 14 C-4.92103225 19.11912543 -7.52510708 24.04192446 -10 30 C-12.97 30 -15.94 30 -19 30 C-19.68856997 22.08144537 -16.8028382 15.409779 -12.4375 8.875 C-11.633125 7.92625 -10.82875 6.9775 -10 6 C-9.01 6 -8.02 6 -7 6 C-6.67 5.01 -6.34 4.02 -6 3 C-3.0625 1.25 -3.0625 1.25 0 0 Z " fill="#9B4255" transform="translate(34,197)"/>
<path d="M0 0 C0.33 0.66 0.66 1.32 1 2 C1.99 2 2.98 2 4 2 C4 2.66 4 3.32 4 4 C3.34 4 2.68 4 2 4 C3.08647538 7.15077861 3.82366144 7.91183072 6.875 9.4375 C10.38590645 11.19295323 11.99788473 12.63644635 14 16 C13.75 18.8125 13.75 18.8125 13 21 C14.32 20.67 15.64 20.34 17 20 C17.33 20.99 17.66 21.98 18 23 C21.3 23 24.6 23 28 23 C28 23.99 28 24.98 28 26 C30.31 25.67 32.62 25.34 35 25 C35.495 26.485 35.495 26.485 36 28 C30.89163334 29.49265113 25.71812309 29.22406692 20.4375 29.25 C18.85678711 29.2809375 18.85678711 29.2809375 17.24414062 29.3125 C16.23416016 29.31765625 15.22417969 29.3228125 14.18359375 29.328125 C13.26118896 29.3374707 12.33878418 29.34681641 11.38842773 29.35644531 C9 29 9 29 7.17602539 27.60449219 C6 26 6 26 6 24 C1.71 24 -2.58 24 -7 24 C-7.33 23.34 -7.66 22.68 -8 22 C-4.04 21.67 -0.08 21.34 4 21 C2.80375 19.55625 1.6075 18.1125 0.375 16.625 C-1.76756639 13.60905816 -2.98327617 11.87322283 -3.0546875 8.14453125 C-1.74296733 1.74296733 -1.74296733 1.74296733 0 0 Z " fill="#7B0922" transform="translate(292,197)"/>
<path d="M0 0 C0.33 0 0.66 0 1 0 C1 12.54 1 25.08 1 38 C-3.29 38 -7.58 38 -12 38 C-12.66 37.34 -13.32 36.68 -14 36 C-14.99 36 -15.98 36 -17 36 C-17.495 34.515 -17.495 34.515 -18 33 C-17.34 33 -16.68 33 -16 33 C-19.31696951 27.82942989 -21.39198 25.676555 -27 23 C-27.875 20.8125 -27.875 20.8125 -28 19 C-27.34 19 -26.68 19 -26 19 C-26 18.34 -26 17.68 -26 17 C-26.99 17 -27.98 17 -29 17 C-29 16.01 -29 15.02 -29 14 C-26.43685501 13.91867813 -23.87631582 13.85935825 -21.3125 13.8125 C-20.59126953 13.78736328 -19.87003906 13.76222656 -19.12695312 13.73632812 C-14.53853126 13.67347303 -11.63065526 14.13296248 -8 17 C-6.65167896 19.69664208 -6.83089318 21.86587521 -6.8125 24.875 C-6.79832031 25.92429688 -6.78414063 26.97359375 -6.76953125 28.0546875 C-7 31 -7 31 -9 35 C-6.03 35.66 -3.06 36.32 0 37 C0 24.79 0 12.58 0 0 Z " fill="#95374C" transform="translate(322,182)"/>
<path d="M0 0 C2.64 0 5.28 0 8 0 C8 14.52 8 29.04 8 44 C5.36 44 2.72 44 0 44 C0 29.48 0 14.96 0 0 Z " fill="#790720" transform="translate(334,182)"/>
<path d="M0 0 C2.64 0 5.28 0 8 0 C8 14.52 8 29.04 8 44 C5.36 44 2.72 44 0 44 C0 29.48 0 14.96 0 0 Z " fill="#790720" transform="translate(166,182)"/>
<path d="M0 0 C5.28 0 10.56 0 16 0 C16 9.57 16 19.14 16 29 C13.69 29 11.38 29 9 29 C9 28.34 9 27.68 9 27 C6.36 27 3.72 27 1 27 C0.67 24.69 0.34 22.38 0 20 C2.64 20 5.28 20 8 20 C8 15.38 8 10.76 8 6 C4.04 6 0.08 6 -4 6 C-4 4.68 -4 3.36 -4 2 C-2.68 2 -1.36 2 0 2 C0 1.34 0 0.68 0 0 Z " fill="#79061F" transform="translate(184,199)"/>
<path d="M0 0 C2.64 0 5.28 0 8 0 C8 10.89 8 21.78 8 33 C7.34 32.34 6.68 31.68 6 31 C5.34 34.3 4.68 37.6 4 41 C4.66 41 5.32 41 6 41 C6 42.32 6 43.64 6 45 C4.02 45 2.04 45 0 45 C0 30.15 0 15.3 0 0 Z " fill="#861B33" transform="translate(414,182)"/>
<path d="M0 0 C2.31 0 4.62 0 7 0 C7.02808077 2.58343122 7.04888844 5.16647194 7.0625 7.75 C7.06725342 8.54535156 7.07200684 9.34070313 7.0769043 10.16015625 C7.07908516 14.64750707 6.96292725 19.09967584 6.671875 23.578125 C6.61378662 24.48336914 6.55569824 25.38861328 6.49584961 26.32128906 C6.37479721 28.08984686 6.2404523 29.85755112 6.09204102 31.62402344 C5.87345566 34.31006225 5.87345566 34.31006225 6 38 C6.99 38.66 7.98 39.32 9 40 C9 40.66 9 41.32 9 42 C6.36 42 3.72 42 1 42 C-0.69196504 38.61606992 -0.11986549 34.77522209 -0.09765625 31.0546875 C-0.0962413 30.1696756 -0.09482635 29.2846637 -0.09336853 28.37283325 C-0.0877614 25.54018809 -0.07520771 22.70762136 -0.0625 19.875 C-0.05748592 17.95703239 -0.05292285 16.03906354 -0.04882812 14.12109375 C-0.03778966 9.41403218 -0.02052025 4.7070294 0 0 Z " fill="#790620" transform="translate(276,183)"/>
<path d="M0 0 C0 4.62 0 9.24 0 14 C-2.31 14.33 -4.62 14.66 -7 15 C-7 16.98 -7 18.96 -7 21 C-10.80097811 20.45700313 -12.57457897 18.92723228 -15 16 C-16.18755128 12.59720884 -16.10138647 9.32755536 -16.0625 5.75 C-16.04896484 4.13351563 -16.04896484 4.13351563 -16.03515625 2.484375 C-16.02355469 1.66453125 -16.01195312 0.8446875 -16 0 C-15.67 0.66 -15.34 1.32 -15 2 C-13.68 2 -12.36 2 -11 2 C-11 1.34 -11 0.68 -11 0 C-6.94952424 -1.35015859 -4.2079832 -0.62084998 0 0 Z " fill="#934053" transform="translate(192,205)"/>
<path d="M0 0 C2.64 0 5.28 0 8 0 C8.02891949 4.29165262 8.04677118 8.58328036 8.0625 12.875 C8.07087891 14.09832031 8.07925781 15.32164062 8.08789062 16.58203125 C8.09272461 18.33193359 8.09272461 18.33193359 8.09765625 20.1171875 C8.10551147 21.73536377 8.10551147 21.73536377 8.11352539 23.38623047 C8 26 8 26 7 28 C4.36 28 1.72 28 -1 28 C-1.33 26.68 -1.66 25.36 -2 24 C-5.63 24.33 -9.26 24.66 -13 25 C-13 24.01 -13 23.02 -13 22 C-8.71 22 -4.42 22 0 22 C0 14.74 0 7.48 0 0 Z " fill="#841B32" transform="translate(57,197)"/>
<path d="M0 0 C1.03930664 0.02030273 1.03930664 0.02030273 2.09960938 0.04101562 C3.79591265 0.07611155 5.49181136 0.12991057 7.1875 0.1875 C7.27488991 4.56237331 7.328024 8.93702078 7.375 13.3125 C7.40013672 14.55 7.42527344 15.7875 7.45117188 17.0625 C7.46083984 18.26132813 7.47050781 19.46015625 7.48046875 20.6953125 C7.4961792 21.79504395 7.51188965 22.89477539 7.52807617 24.02783203 C7.13916316 27.63594115 5.97588888 30.05627242 4.1875 33.1875 C2.2075 32.8575 0.2275 32.5275 -1.8125 32.1875 C-1.4825 24.5975 -1.1525 17.0075 -0.8125 9.1875 C0.5075 8.8575 1.8275 8.5275 3.1875 8.1875 C3.1875 7.5275 3.1875 6.8675 3.1875 6.1875 C4.1775 6.1875 5.1675 6.1875 6.1875 6.1875 C6.1875 4.5375 6.1875 2.8875 6.1875 1.1875 C1.8975 1.1875 -2.3925 1.1875 -6.8125 1.1875 C-7.1425 2.8375 -7.4725 4.4875 -7.8125 6.1875 C-9.4625 6.1875 -11.1125 6.1875 -12.8125 6.1875 C-12.8125 5.1975 -12.8125 4.2075 -12.8125 3.1875 C-8.80991627 -0.14669111 -4.98458061 -0.18602741 0 0 Z " fill="#842037" transform="translate(443.8125,196.8125)"/>
<path d="M0 0 C2.31 0 4.62 0 7 0 C7 6.93 7 13.86 7 21 C9.64 21 12.28 21 15 21 C15.33 19.68 15.66 18.36 16 17 C17.76462683 20.08809695 18 21.23312136 18 25 C17.01 24.67 16.02 24.34 15 24 C14.67 24.99 14.34 25.98 14 27 C6.65306122 27.48979592 6.65306122 27.48979592 3.5 25.125 C2 23 2 23 2 21 C1.34 21 0.68 21 0 21 C0 14.07 0 7.14 0 0 Z " fill="#780720" transform="translate(140,198)"/>
<path d="M0 0 C1.2065625 0.0309375 1.2065625 0.0309375 2.4375 0.0625 C2.46651394 3.4999823 2.48430335 6.93743312 2.5 10.375 C2.50837891 11.35146484 2.51675781 12.32792969 2.52539062 13.33398438 C2.52861328 14.27177734 2.53183594 15.20957031 2.53515625 16.17578125 C2.54039307 17.03985596 2.54562988 17.90393066 2.55102539 18.79418945 C2.4375 21.0625 2.4375 21.0625 1.4375 24.0625 C3.4175 24.3925 5.3975 24.7225 7.4375 25.0625 C4.73095977 27.89206479 3.4488025 29.03000313 -0.6015625 29.16015625 C-1.78492188 29.14855469 -2.96828125 29.13695312 -4.1875 29.125 C-5.37601562 29.11597656 -6.56453125 29.10695312 -7.7890625 29.09765625 C-8.70429688 29.08605469 -9.61953125 29.07445312 -10.5625 29.0625 C-8.19878473 25.65209557 -6.54690872 24.35474067 -2.5625 23.0625 C-2.5625 22.4025 -2.5625 21.7425 -2.5625 21.0625 C-2.8925 20.7325 -3.2225 20.4025 -3.5625 20.0625 C-3.66110131 18.65901265 -3.69328937 17.25069523 -3.6953125 15.84375 C-3.69724609 14.56951172 -3.69724609 14.56951172 -3.69921875 13.26953125 C-3.69535156 12.37621094 -3.69148438 11.48289063 -3.6875 10.5625 C-3.69136719 9.66917969 -3.69523437 8.77585938 -3.69921875 7.85546875 C-3.69792969 7.00597656 -3.69664062 6.15648437 -3.6953125 5.28125 C-3.69418457 4.49685547 -3.69305664 3.71246094 -3.69189453 2.90429688 C-3.48529923 -0.03637288 -2.96020465 0.07220011 0 0 Z " fill="#A85669" transform="translate(440.5625,204.9375)"/>
<path d="M0 0 C0.33 0 0.66 0 1 0 C1.0247345 4.07510438 1.04287637 8.15017964 1.05493164 12.2253418 C1.05995777 13.61141725 1.06677966 14.99748741 1.07543945 16.38354492 C1.08758018 18.37676715 1.09271021 20.37002819 1.09765625 22.36328125 C1.10289307 23.56251221 1.10812988 24.76174316 1.11352539 25.99731445 C1 29 1 29 0 32 C-0.66 32 -1.32 32 -2 32 C-2 31.34 -2 30.68 -2 30 C-3.32 29.67 -4.64 29.34 -6 29 C-6 20.09 -6 11.18 -6 2 C-4.35 2 -2.7 2 -1 2 C-0.67 1.34 -0.34 0.68 0 0 Z " fill="#790720" transform="translate(92,190)"/>
<path d="M0 0 C0.928125 0.0825 1.85625 0.165 2.8125 0.25 C2.4825 1.57 2.1525 2.89 1.8125 4.25 C0.1625 3.92 -1.4875 3.59 -3.1875 3.25 C-3.1875 3.91 -3.1875 4.57 -3.1875 5.25 C-3.8475 5.91 -4.5075 6.57 -5.1875 7.25 C-4.8575 8.24 -4.5275 9.23 -4.1875 10.25 C-2.8675 10.25 -1.5475 10.25 -0.1875 10.25 C-0.1875 10.91 -0.1875 11.57 -0.1875 12.25 C0.4725 12.58 1.1325 12.91 1.8125 13.25 C1.16981563 14.89706553 0.52326198 16.54262175 -0.125 18.1875 C-0.48464844 19.10402344 -0.84429687 20.02054688 -1.21484375 20.96484375 C-2.1875 23.25 -2.1875 23.25 -3.1875 24.25 C-4.70678038 24.32179964 -6.22917482 24.33392007 -7.75 24.3125 C-8.57628906 24.30347656 -9.40257812 24.29445312 -10.25390625 24.28515625 C-11.21103516 24.26775391 -11.21103516 24.26775391 -12.1875 24.25 C-12.02535196 16.3637091 -10.66030036 10.77822018 -6.1875 4.25 C-5.70410156 3.51136719 -5.22070312 2.77273437 -4.72265625 2.01171875 C-3.1875 0.25 -3.1875 0.25 0 0 Z " fill="#913248" transform="translate(226.1875,202.75)"/>
<path d="M0 0 C2.64 0 5.28 0 8 0 C8.33 12.54 8.66 25.08 9 38 C13.29 38.33 17.58 38.66 22 39 C22.33 40.32 22.66 41.64 23 43 C23.66 43 24.32 43 25 43 C25 43.66 25 44.32 25 45 C16.75 45 8.5 45 0 45 C0.33 43.68 0.66 42.36 1 41 C1 41.66 1 42.32 1 43 C3.64 43 6.28 43 9 43 C8.0085498 42.02800659 8.0085498 42.02800659 6.99707031 41.03637695 C4.38947713 37.07175147 4.67367196 33.95906295 5.046875 29.41796875 C5.09692688 28.60378983 5.14697876 27.7896109 5.19854736 26.95075989 C5.36234606 24.361233 5.55572252 21.77490091 5.75 19.1875 C5.86654297 17.42786307 5.98114824 15.66809666 6.09375 13.90820312 C6.37340557 9.60364542 6.67959599 5.30170875 7 1 C4.69 1 2.38 1 0 1 C0 0.67 0 0.34 0 0 Z " fill="#8F2C43" transform="translate(276,182)"/>
<path d="M0 0 C2.93804996 -0.08086376 5.87388075 -0.1404283 8.8125 -0.1875 C9.64587891 -0.21263672 10.47925781 -0.23777344 11.33789062 -0.26367188 C12.54155273 -0.27817383 12.54155273 -0.27817383 13.76953125 -0.29296875 C14.87711792 -0.31653442 14.87711792 -0.31653442 16.00708008 -0.34057617 C18.52230522 0.08925833 19.39441516 1.07463062 21 3 C20.01 3.495 20.01 3.495 19 4 C18.53193355 6.33744294 18.17330206 8.69739079 17.875 11.0625 C17.70742188 12.35285156 17.53984375 13.64320313 17.3671875 14.97265625 C17.24601562 15.97167969 17.12484375 16.97070312 17 18 C16.67 18 16.34 18 16 18 C16 15.03 16 12.06 16 9 C10.72 8.67 5.44 8.34 0 8 C0 5.36 0 2.72 0 0 Z " fill="#91364B" transform="translate(490,197)"/>
<path d="M0 0 C2.64 0 5.28 0 8 0 C8 7.26 8 14.52 8 22 C7.67 22 7.34 22 7 22 C7 20.02 7 18.04 7 16 C4.69 16 2.38 16 0 16 C-0.99 11.71 -1.98 7.42 -3 3 C-2.34 3 -1.68 3 -1 3 C-0.67 2.01 -0.34 1.02 0 0 Z " fill="#881933" transform="translate(36,197)"/>
<path d="M0 0 C0.66 1.32 1.32 2.64 2 4 C3.32 3.01 4.64 2.02 6 1 C6.309375 1.78375 6.61875 2.5675 6.9375 3.375 C7.92875038 5.92330128 7.92875038 5.92330128 9 8 C8.22265625 10.1640625 8.22265625 10.1640625 7.0625 12.625 C6.49208984 13.85089844 6.49208984 13.85089844 5.91015625 15.1015625 C5.60980469 15.72804687 5.30945312 16.35453125 5 17 C2.03 17 -0.94 17 -4 17 C-4.56131481 10.54487966 -2.63463787 5.84560277 0 0 Z " fill="#9C4356" transform="translate(19,210)"/>
<path d="M0 0 C2 2 2 2 2.1953125 3.9453125 C2.13020833 5.96354167 2.06510417 7.98177083 2 10 C1.01 10 0.02 10 -1 10 C-1 10.66 -1 11.32 -1 12 C-4.85630673 11.46440184 -7.02085954 10.48261705 -10 8 C-10.99 7.34 -11.98 6.68 -13 6 C-13.6875 2.875 -13.6875 2.875 -14 0 C-9.04312518 -0.9104464 -4.94315591 -1.06617088 0 0 Z " fill="#7B0E26" transform="translate(312,197)"/>
<path d="M0 0 C0.33 0.66 0.66 1.32 1 2 C1.99 2 2.98 2 4 2 C4 2.66 4 3.32 4 4 C3.34 4 2.68 4 2 4 C2.59533047 5.94906855 2.59533047 5.94906855 4 8 C4.99 8.474375 5.98 8.94875 7 9.4375 C10 11 10 11 11.375 13.6875 C11.58125 14.450625 11.7875 15.21375 12 16 C11.236875 16.0825 10.47375 16.165 9.6875 16.25 C6.43857664 17.15667629 5.84920369 18.28855764 4 21 C-2.96131409 13.01995702 -2.96131409 13.01995702 -3.0546875 8.14453125 C-1.74296733 1.74296733 -1.74296733 1.74296733 0 0 Z " fill="#8F2E44" transform="translate(292,197)"/>
<path d="M0 0 C0.33 0 0.66 0 1 0 C1 6.6 1 13.2 1 20 C6.28 20 11.56 20 17 20 C17 14.72 17 9.44 17 4 C16.34 4 15.68 4 15 4 C15 2.68 15 1.36 15 0 C16.98 0 18.96 0 21 0 C21 6.93 21 13.86 21 21 C14.07 21 7.14 21 0 21 C0 14.07 0 7.14 0 0 Z " fill="#700B22" transform="translate(13,91)"/>
<path d="M0 0 C1.625 1.5 1.625 1.5 3 3 C2.67 3.99 2.34 4.98 2 6 C-1.28519475 7.09506492 -3.73663415 7.09960608 -7.1875 7.0625 C-8.81751953 7.04896484 -8.81751953 7.04896484 -10.48046875 7.03515625 C-11.31191406 7.02355469 -12.14335938 7.01195312 -13 7 C-13 6.34 -13 5.68 -13 5 C-16.37817425 4.15545644 -18.67465243 3.89155081 -22 5 C-22.33 4.01 -22.66 3.02 -23 2 C-22.15236084 1.96241577 -22.15236084 1.96241577 -21.28759766 1.92407227 C-18.73316258 1.80820044 -16.1791045 1.68543463 -13.625 1.5625 C-12.29082031 1.50352539 -12.29082031 1.50352539 -10.9296875 1.44335938 C-10.07890625 1.40146484 -9.228125 1.35957031 -8.3515625 1.31640625 C-7.56604004 1.27974854 -6.78051758 1.24309082 -5.97119141 1.20532227 C-3.71076818 0.96987318 -2.28693751 0 0 0 Z " fill="#77081F" transform="translate(121,218)"/>
<path d="M0 0 C1.65 0 3.3 0 5 0 C5 6.27 5 12.54 5 19 C3.35 19.33 1.7 19.66 0 20 C0 13.4 0 6.8 0 0 Z " fill="#FCFAFA" transform="translate(258,205)"/>
<path d="M0 0 C6.27 0 12.54 0 19 0 C19 1.65 19 3.3 19 5 C14.75448144 6.09587955 11.0407161 5.92865836 6.6875 5.5625 C5.43324219 5.46066406 4.17898437 5.35882813 2.88671875 5.25390625 C1.93410156 5.17011719 0.98148437 5.08632812 0 5 C0 3.35 0 1.7 0 0 Z " fill="#7A0620" transform="translate(102,199)"/>
<path d="M0 0 C0.99 0.33 1.98 0.66 3 1 C3.3129725 6.2162083 2.85058429 9.56575777 0 14 C-0.99 14.33 -1.98 14.66 -3 15 C-3.33 13.35 -3.66 11.7 -4 10 C-5.32 10.99 -6.64 11.98 -8 13 C-9 12 -9 12 -9.0625 9.4375 C-9.041875 8.633125 -9.02125 7.82875 -9 7 C-6.35261084 5.5393715 -5.10551666 5 -2 5 C-1.34 3.35 -0.68 1.7 0 0 Z " fill="#912E45" transform="translate(29,202)"/>
<path d="M0 0 C0 3.3 0 6.6 0 10 C-2.31 10 -4.62 10 -7 10 C-7 9.34 -7 8.68 -7 8 C-9.64 8 -12.28 8 -15 8 C-15.33 5.69 -15.66 3.38 -16 1 C-12.625 1.25 -12.625 1.25 -9 2 C-7.5625 4.0625 -7.5625 4.0625 -7 6 C-6.01 6 -5.02 6 -4 6 C-4 5.01 -4 4.02 -4 3 C-1.44444444 0 -1.44444444 0 0 0 Z " fill="#770720" transform="translate(200,218)"/>
<path d="M0 0 C3.96 0 7.92 0 12 0 C12 0.33 12 0.66 12 1 C10.02 1.33 8.04 1.66 6 2 C6.03780298 4.37233611 6.03780298 4.37233611 7 7 C9.95849927 9.33414647 9.95849927 9.33414647 13 11 C12.67 12.65 12.34 14.3 12 16 C11.0925 15.21625 10.185 14.4325 9.25 13.625 C7.38276949 12.04911042 5.92380298 10.96499056 3.6875 9.9375 C2 9 2 9 1.25 6.875 C1.1675 6.25625 1.085 5.6375 1 5 C1.66 5 2.32 5 3 5 C3 4.34 3 3.68 3 3 C2.01 3 1.02 3 0 3 C0 2.01 0 1.02 0 0 Z " fill="#933C4F" transform="translate(293,196)"/>
<path d="M0 0 C1.65 0 3.3 0 5 0 C5 4.62 5 9.24 5 14 C3.35 14 1.7 14 0 14 C-1.24377393 11.51245214 -1.13306235 9.77344699 -1.125 7 C-1.12757813 6.113125 -1.13015625 5.22625 -1.1328125 4.3125 C-1 2 -1 2 0 0 Z " fill="#FEFEFE" transform="translate(187,205)"/>
<path d="M0 0 C1.32 0 2.64 0 4 0 C3.67 6.27 3.34 12.54 3 19 C1.68 19.33 0.36 19.66 -1 20 C-1.02888514 16.85418577 -1.04675923 13.70840531 -1.0625 10.5625 C-1.07087891 9.66466797 -1.07925781 8.76683594 -1.08789062 7.84179688 C-1.09111328 6.98779297 -1.09433594 6.13378906 -1.09765625 5.25390625 C-1.10551147 4.06776733 -1.10551147 4.06776733 -1.11352539 2.85766602 C-1 1 -1 1 0 0 Z " fill="#FCFBFB" transform="translate(438,205)"/>
<path d="M0 0 C3.3 0 6.6 0 10 0 C10 1.32 10 2.64 10 4 C9.34 4 8.68 4 8 4 C8 5.32 8 6.64 8 8 C5.36 8.33 2.72 8.66 0 9 C0 6.03 0 3.06 0 0 Z " fill="#8A233C" transform="translate(68,229)"/>
<path d="M0 0 C2.97 0 5.94 0 9 0 C9 2.64 9 5.28 9 8 C6.03 8 3.06 8 0 8 C0 5.36 0 2.72 0 0 Z " fill="#8D384B" transform="translate(107,230)"/>
<path d="M0 0 C2.97 0 5.94 0 9 0 C9 2.64 9 5.28 9 8 C6.03 8 3.06 8 0 8 C0 5.36 0 2.72 0 0 Z " fill="#86394B" transform="translate(46,230)"/>
<path d="M0 0 C1.98 0 3.96 0 6 0 C6.13277344 0.77085937 6.26554688 1.54171875 6.40234375 2.3359375 C6.57894531 3.33882812 6.75554687 4.34171875 6.9375 5.375 C7.19853516 6.87160156 7.19853516 6.87160156 7.46484375 8.3984375 C7.87712062 10.96909656 7.87712062 10.96909656 9 13 C9.99 13 10.98 13 12 13 C11.67 14.32 11.34 15.64 11 17 C10.34 17 9.68 17 9 17 C9 17.99 9 18.98 9 20 C8.01 20 7.02 20 6 20 C3.8125 17.5 3.8125 17.5 2 15 C2.99 15 3.98 15 5 15 C5 10.38 5 5.76 5 1 C3.35 1 1.7 1 0 1 C0 0.67 0 0.34 0 0 Z " fill="#8D2039" transform="translate(187,204)"/>
<path d="M0 0 C2.97 0 5.94 0 9 0 C9 2.64 9 5.28 9 8 C6.03 8 3.06 8 0 8 C0 5.36 0 2.72 0 0 Z " fill="#84394A" transform="translate(496,184)"/>
<path d="M0 0 C2.97 0 5.94 0 9 0 C9 2.64 9 5.28 9 8 C6.03 8 3.06 8 0 8 C0 5.36 0 2.72 0 0 Z " fill="#832C40" transform="translate(234,184)"/>
<path d="M0 0 C2.97 0 5.94 0 9 0 C9 2.64 9 5.28 9 8 C6.03 8 3.06 8 0 8 C0 5.36 0 2.72 0 0 Z " fill="#883346" transform="translate(223,184)"/>
<path d="M0 0 C2.97 0 5.94 0 9 0 C9 2.64 9 5.28 9 8 C6.03 8 3.06 8 0 8 C0 5.36 0 2.72 0 0 Z " fill="#904456" transform="translate(139,184)"/>
<path d="M0 0 C2.97 0 5.94 0 9 0 C9 2.64 9 5.28 9 8 C6.03 8 3.06 8 0 8 C0 5.36 0 2.72 0 0 Z " fill="#8E3B4B" transform="translate(24,184)"/>
<path d="M0 0 C3.96 0.33 7.92 0.66 12 1 C12.66 2.65 13.32 4.3 14 6 C9.38 6 4.76 6 0 6 C0 4.02 0 2.04 0 0 Z " fill="#87152F" transform="translate(490,199)"/>
<path d="M0 0 C2.31 0 4.62 0 7 0 C7.25 7.625 7.25 7.625 5 11 C3.35 10.67 1.7 10.34 0 10 C0 6.7 0 3.4 0 0 Z " fill="#821A32" transform="translate(86,182)"/>
<path d="M0 0 C2.95857409 -0.05379226 5.91617721 -0.09357093 8.875 -0.125 C9.71675781 -0.14175781 10.55851562 -0.15851563 11.42578125 -0.17578125 C12.23144531 -0.18222656 13.03710938 -0.18867188 13.8671875 -0.1953125 C14.98262939 -0.21102295 14.98262939 -0.21102295 16.12060547 -0.22705078 C18 0 18 0 20 2 C14.06 2 8.12 2 2 2 C2 3.65 2 5.3 2 7 C5.96 7 9.92 7 14 7 C14 7.66 14 8.32 14 9 C7.07 8.505 7.07 8.505 0 8 C0 5.36 0 2.72 0 0 Z " fill="#9E4E62" transform="translate(100,197)"/>
<path d="M0 0 C2.64 0 5.28 0 8 0 C8 2.64 8 5.28 8 8 C5.36 8 2.72 8 0 8 C0 5.36 0 2.72 0 0 Z " fill="#741C30" transform="translate(57,230)"/>
<path d="M0 0 C2.64 0 5.28 0 8 0 C8 2.64 8 5.28 8 8 C5.36 8 2.72 8 0 8 C0 5.36 0 2.72 0 0 Z " fill="#771A30" transform="translate(386,184)"/>
<path d="M0 0 C2.64 0 5.28 0 8 0 C8 2.64 8 5.28 8 8 C5.36 8 2.72 8 0 8 C0 5.36 0 2.72 0 0 Z " fill="#7E2539" transform="translate(375,184)"/>
<path d="M0 0 C2.64 0 5.28 0 8 0 C8 2.64 8 5.28 8 8 C5.36 8 2.72 8 0 8 C0 5.36 0 2.72 0 0 Z " fill="#6E1529" transform="translate(129,184)"/>
<path d="M0 0 C2.64 0 5.28 0 8 0 C8 2.64 8 5.28 8 8 C5.36 8 2.72 8 0 8 C0 5.36 0 2.72 0 0 Z " fill="#761B30" transform="translate(35,184)"/>
<path d="M0 0 C0.33 0.66 0.66 1.32 1 2 C1.99 2 2.98 2 4 2 C4 2.66 4 3.32 4 4 C3.34 4 2.68 4 2 4 C2.79117904 5.99983534 2.79117904 5.99983534 4 8 C4.99 8.33 5.98 8.66 7 9 C6.67 10.98 6.34 12.96 6 15 C5.01 15.33 4.02 15.66 3 16 C2.67 13.69 2.34 11.38 2 9 C0.68 8.67 -0.64 8.34 -2 8 C-1.125 1.125 -1.125 1.125 0 0 Z " fill="#7D0E25" transform="translate(292,197)"/>
<path d="M0 0 C0.66 0 1.32 0 2 0 C2 0.66 2 1.32 2 2 C2.99 2.33 3.98 2.66 5 3 C5.33 5.64 5.66 8.28 6 11 C3.69 11 1.38 11 -1 11 C-1.02688151 9.35425434 -1.04634123 7.70838587 -1.0625 6.0625 C-1.07410156 5.14597656 -1.08570313 4.22945312 -1.09765625 3.28515625 C-1 1 -1 1 0 0 Z " fill="#7C182F" transform="translate(216,215)"/>
<path d="M0 0 C2.64 0 5.28 0 8 0 C8 0.33 8 0.66 8 1 C6.35 1 4.7 1 3 1 C3 3.64 3 6.28 3 9 C3.66 9 4.32 9 5 9 C4.67 9.99 4.34 10.98 4 12 C2.68 11.67 1.36 11.34 0 11 C-0.66 8.03 -1.32 5.06 -2 2 C-1.34 2 -0.68 2 0 2 C0 1.34 0 0.68 0 0 Z " fill="#740A22" transform="translate(35,198)"/>
<path d="M0 0 C4.62 0 9.24 0 14 0 C14 0.33 14 0.66 14 1 C9.71 1 5.42 1 1 1 C1 2.65 1 4.3 1 6 C2.98 5.67 4.96 5.34 7 5 C7 5.66 7 6.32 7 7 C9.31 7.33 11.62 7.66 14 8 C14 8.33 14 8.66 14 9 C9.38 9 4.76 9 0 9 C0 6.03 0 3.06 0 0 Z " fill="#BA7B89" transform="translate(177,229)"/>
<path d="M0 0 C4.77149487 2.31758322 7.4437126 5.45438389 10 10 C10.8125 12.9375 10.8125 12.9375 11 15 C9.68 14.34 8.36 13.68 7 13 C7 11.35 7 9.7 7 8 C5.35 7.67 3.7 7.34 2 7 C1.34 4.69 0.68 2.38 0 0 Z " fill="#8A3044" transform="translate(473,198)"/>
<path d="M0 0 C2 1.375 2 1.375 4 3 C4 3.66 4 4.32 4 5 C3.01 5.495 3.01 5.495 2 6 C2 7.98 2 9.96 2 12 C-0.16874252 11.49396008 -1.99967627 11.00016187 -4 10 C-3.71125 9.46375 -3.4225 8.9275 -3.125 8.375 C-1.83288192 5.64719516 -0.91441408 2.87387282 0 0 Z " fill="#86293E" transform="translate(183,214)"/>
<path d="M0 0 C1.32 0.66 2.64 1.32 4 2 C3.01 3.98 2.02 5.96 1 8 C-1.97 8 -4.94 8 -8 8 C-8 5.69 -8 3.38 -8 1 C-7.67 1 -7.34 1 -7 1 C-7 2.98 -7 4.96 -7 7 C-4.49034386 6.29660434 -4.49034386 6.29660434 -2 5 C-1.18553891 2.99427359 -1.18553891 2.99427359 -1 1 C-0.67 0.67 -0.34 0.34 0 0 Z " fill="#A55567" transform="translate(23,219)"/>
<path d="M0 0 C1.65 0.33 3.3 0.66 5 1 C5 3.64 5 6.28 5 9 C4.34 9 3.68 9 3 9 C3 8.34 3 7.68 3 7 C1.68 7 0.36 7 -1 7 C-1.66 5.68 -2.32 4.36 -3 3 C-2.01 2.67 -1.02 2.34 0 2 C0 1.34 0 0.68 0 0 Z " fill="#780B22" transform="translate(223,206)"/>
<path d="M0 0 C0 1.32 0 2.64 0 4 C-0.99 4 -1.98 4 -3 4 C-3 4.66 -3 5.32 -3 6 C-4.8125 6.625 -4.8125 6.625 -7 7 C-7.99 6.34 -8.98 5.68 -10 5 C-10 4.01 -10 3.02 -10 2 C-3.375 0 -3.375 0 0 0 Z " fill="#7E031F" transform="translate(450,199)"/>
<path d="M0 0 C3.63 0 7.26 0 11 0 C10.67 2.31 10.34 4.62 10 7 C14.455 6.505 14.455 6.505 19 6 C19 5.67 19 5.34 19 5 C20.65 5 22.3 5 24 5 C24.33 5.66 24.66 6.32 25 7 C21.99686252 8.50156874 19.20932478 8.09281204 15.875 8.0625 C14.59367188 8.05347656 13.31234375 8.04445312 11.9921875 8.03515625 C11.00476563 8.02355469 10.01734375 8.01195312 9 8 C9 5.69 9 3.38 9 1 C6.03 1 3.06 1 0 1 C0 0.67 0 0.34 0 0 Z " fill="#852B40" transform="translate(240,226)"/>
<path d="M0 0 C1.5625 1.25 1.5625 1.25 3 3 C2.6875 5.1875 2.6875 5.1875 2 7 C1.67 6.34 1.34 5.68 1 5 C-3.29 5 -7.58 5 -12 5 C-12.33 4.34 -12.66 3.68 -13 3 C-8.71 3 -4.42 3 0 3 C0 2.01 0 1.02 0 0 Z " fill="#811A31" transform="translate(297,216)"/>
<path d="M0 0 C0 1.98 0 3.96 0 6 C-0.99 6 -1.98 6 -3 6 C-3.33 10.62 -3.66 15.24 -4 20 C-4.33 20 -4.66 20 -5 20 C-5.1081866 17.41554227 -5.18737237 14.83562648 -5.25 12.25 C-5.28351563 11.52039063 -5.31703125 10.79078125 -5.3515625 10.0390625 C-5.41822054 6.37287022 -5.33042413 4.42558628 -3.046875 1.484375 C-1 0 -1 0 0 0 Z " fill="#904456" transform="translate(254,199)"/>
<path d="M0 0 C1.65 0 3.3 0 5 0 C5.33 1.98 5.66 3.96 6 6 C4.02 6.33 2.04 6.66 0 7 C0 4.69 0 2.38 0 0 Z " fill="#7E0B26" transform="translate(68,229)"/>
<path d="M0 0 C1.98 0 3.96 0 6 0 C6 1.32 6 2.64 6 4 C6.99 4.33 7.98 4.66 9 5 C6.03 5 3.06 5 0 5 C0 3.35 0 1.7 0 0 Z " fill="#770720" transform="translate(490,199)"/>
<path d="M0 0 C0.99 0 1.98 0 3 0 C3 2.31 3 4.62 3 7 C1.02 7 -0.96 7 -3 7 C-2.01 4.69 -1.02 2.38 0 0 Z " fill="#700D24" transform="translate(144,185)"/>
<path d="M0 0 C0.33 0.99 0.66 1.98 1 3 C-1.97 5.475 -1.97 5.475 -5 8 C-6 7 -6 7 -6.0625 4.4375 C-6.041875 3.633125 -6.02125 2.82875 -6 2 C-2.25 0 -2.25 0 0 0 Z " fill="#7C0C24" transform="translate(26,207)"/>
<path d="M0 0 C2.64 0.33 5.28 0.66 8 1 C7.67 2.65 7.34 4.3 7 6 C4.69 5.01 2.38 4.02 0 3 C0 2.01 0 1.02 0 0 Z " fill="#7A081F" transform="translate(472,205)"/>
<path d="M0 0 C0.99 0.33 1.98 0.66 3 1 C2.67 4.63 2.34 8.26 2 12 C1.34 11.67 0.68 11.34 0 11 C-0.28926947 8.97511372 -0.57272154 6.94755984 -0.75390625 4.91015625 C-0.90406878 2.91747967 -0.90406878 2.91747967 -2 1 C-1.34 0.67 -0.68 0.34 0 0 Z " fill="#974A5C" transform="translate(184,204)"/>
<path d="M0 0 C0.99 0.33 1.98 0.66 3 1 C3 3.31 3 5.62 3 8 C1.0625 7.1875 1.0625 7.1875 -1 6 C-1.33 5.01 -1.66 4.02 -2 3 C-1.34 2.01 -0.68 1.02 0 0 Z " fill="#780A22" transform="translate(29,202)"/>
<path d="M0 0 C1.32 0 2.64 0 4 0 C2.52307692 6.64615385 2.52307692 6.64615385 -0.125 8.4375 C-0.74375 8.623125 -1.3625 8.80875 -2 9 C-2 8.01 -2 7.02 -2 6 C-1.34 6 -0.68 6 0 6 C0 4.02 0 2.04 0 0 Z " fill="#9B4A5D" transform="translate(78,227)"/>
<path d="M0 0 C0.33 0.66 0.66 1.32 1 2 C1.99 2 2.98 2 4 2 C4 2.66 4 3.32 4 4 C3.34 4 2.68 4 2 4 C2.33 4.99 2.66 5.98 3 7 C1.68 7 0.36 7 -1 7 C-1.625 5.1875 -1.625 5.1875 -2 3 C-1.34 2.01 -0.68 1.02 0 0 Z " fill="#8A2D41" transform="translate(292,197)"/>
<path d="M0 0 C2.62386487 3.06117568 3 3.73173127 3 8 C2.34 8 1.68 8 1 8 C0.67 7.34 0.34 6.68 0 6 C-1.89533342 5.53476937 -1.89533342 5.53476937 -4.0625 5.375 C-5.361875 5.25125 -6.66125 5.1275 -8 5 C-8 4.67 -8 4.34 -8 4 C-5.36 4 -2.72 4 0 4 C0 2.68 0 1.36 0 0 Z " fill="#7B1128" transform="translate(155,215)"/>
<path d="M0 0 C0.33 0.66 0.66 1.32 1 2 C2.98 1.67 4.96 1.34 7 1 C7 2.32 7 3.64 7 5 C4.69 5 2.38 5 0 5 C0 3.35 0 1.7 0 0 Z " fill="#650F24" transform="translate(375,187)"/>
<path d="M0 0 C1.65 0 3.3 0 5 0 C5 0.99 5 1.98 5 3 C4.01 3 3.02 3 2 3 C1.67 3.99 1.34 4.98 1 6 C2.98 6 4.96 6 7 6 C7 6.33 7 6.66 7 7 C4.69 7 2.38 7 0 7 C0 4.69 0 2.38 0 0 Z " fill="#6D0E23" transform="translate(25,185)"/>
<path d="M0 0 C1 3 1 3 0 6 C-1.65 6 -3.3 6 -5 6 C-5 5.01 -5 4.02 -5 3 C-2.5 1.3125 -2.5 1.3125 0 0 Z " fill="#93394E" transform="translate(436,197)"/>
<path d="M0 0 C2.31 0 4.62 0 7 0 C7 2.31 7 4.62 7 7 C6.34 7 5.68 7 5 7 C4.9175 6.21625 4.835 5.4325 4.75 4.625 C4.27193661 1.85250896 4.27193661 1.85250896 1.9375 0.6875 C1.298125 0.460625 0.65875 0.23375 0 0 Z " fill="#691024" transform="translate(108,230)"/>
<path d="M0 0 C0.66 0 1.32 0 2 0 C2.66 1.98 3.32 3.96 4 6 C1.03 6 -1.94 6 -5 6 C-5 5.67 -5 5.34 -5 5 C-3.35 5 -1.7 5 0 5 C0 3.35 0 1.7 0 0 Z " fill="#6C0D23" transform="translate(370,220)"/>
<path d="M0 0 C1.9375 0.3125 1.9375 0.3125 4 1 C4.33 1.99 4.66 2.98 5 4 C4.01 5.485 4.01 5.485 3 7 C2.01 4.69 1.02 2.38 0 0 Z " fill="#F4EAEC" transform="translate(301,205)"/>
<path d="M0 0 C0.99 0 1.98 0 3 0 C3 1.98 3 3.96 3 6 C2.01 6 1.02 6 0 6 C0 4.02 0 2.04 0 0 Z " fill="#7B0520" transform="translate(47,231)"/>
<path d="M0 0 C1.65 0 3.3 0 5 0 C5.33 1.65 5.66 3.3 6 5 C2.83884224 3.63016497 2.0072908 3.0109362 0 0 Z " fill="#943D51" transform="translate(358,221)"/>
<path d="M0 0 C2 3.75 2 3.75 2 6 C0.68 6 -0.64 6 -2 6 C-2 4.35 -2 2.7 -2 1 C-1.34 0.67 -0.68 0.34 0 0 Z " fill="#893447" transform="translate(179,201)"/>
<path d="M0 0 C0.66 0 1.32 0 2 0 C2 0.66 2 1.32 2 2 C2.99 2 3.98 2 5 2 C5 2.66 5 3.32 5 4 C3.02 4 1.04 4 -1 4 C-0.67 2.68 -0.34 1.36 0 0 Z " fill="#7C0B21" transform="translate(499,187)"/>
</svg>
